#!OML:ASF F:\VICON\USERDATA\INSTALL\rory3\rory3.ASF
:FULLY-SPECIFIED
:DEGREES
48
root 0.917725 17.7686 -20.1023 -1.10043 1.19014 2.62022
lowerback 11.3027 -1.11452 -5.56181
upperback 0.195801 -2.12851 1.25302
thorax -5.89292 -0.869997 4.80634
lowerneck -15.6224 -2.44916 -2.0526
upperneck 19.7743 -2.92882 0.205677
head 8.79663 -1.51149 0.0557179
rclavicle 1.67973e-014 1.03368e-014
rhumerus -38.9539 -34.2486 -66.8623
rradius 19.847
rwrist 10.4453
rhand -20.7516 20.768
rfingers 7.12502
rthumb 5.61414 -9.13761
lclavicle 1.67973e-014 1.03368e-014
lhumerus -24.4473 -7.70292 80.4417
lradius 34.2353
lwrist 10.8657
lhand -29.6812 20.8035
lfingers 7.12502
lthumb -3.00961 50.762
rfemur -27.8107 7.29662 15.4766
rtibia 13.0461
rfoot -9.21358 -15.1434
rtoes 0.848208
lfemur 12.333 -3.76097 -26.8148
ltibia 16.3577
lfoot -16.405 -6.33769
ltoes -0.465315
49
root 0.900393 17.7581 -19.9256 -1.2374 1.25478 2.44207
lowerback 11.4323 -1.22453 -5.43316
upperback 0.171515 -2.25768 1.38359
thorax -5.97521 -0.931736 4.89812
lowerneck -15.2715 -2.42654 -2.29221
upperneck 19.7335 -2.84151 0.182798
head 8.72173 -1.49229 0.102752
rclavicle 1.9133e-015 5.96354e-015
rhumerus -39.1427 -33.8212 -66.7555
rradius 19.7945
rwrist 10.4943
rhand -21.1088 20.3049
rfingers 7.12502
rthumb 5.26932 -9.60962
lclavicle 1.9133e-015 5.96354e-015
lhumerus -24.5449 -7.37225 80.3865
lradius 34.1966
lwrist 10.7928
lhand -30.5639 21.3684
lfingers 7.12502
lthumb -3.86203 51.3132
rfemur -27.8613 6.57333 16.1044
rtibia 13.9642
rfoot -8.71749 -13.9668
rtoes 1.68015
lfemur 12.8885 -4.02374 -26.592
ltibia 16.787
lfoot -16.461 -6.59811
ltoes -1.2119
50
root 0.882909 17.7473 -19.7373 -1.28317 1.36358 2.39909
lowerback 11.4673 -1.30861 -5.39499
upperback 0.178163 -2.36165 1.45641
thorax -5.97341 -0.983136 4.97132
lowerneck -15.3607 -2.38946 -2.55181
upperneck 19.7978 -2.74735 0.290655
head 8.7647 -1.45599 0.191907
rclavicle -2.24378e-014 4.37326e-015
rhumerus -39.2765 -33.8849 -66.4534
rradius 19.5963
rwrist 10.825
rhand -21.0347 20.6534
rfingers 7.12502
rthumb 5.34086 -9.25928
lclavicle -2.24378e-014 4.37326e-015
lhumerus -24.3892 -6.79831 80.3231
lradius 33.8583
lwrist 10.6442
lhand -29.9682 23.5113
lfingers 7.12502
lthumb -3.28673 53.4657
rfemur -28.0354 5.58456 16.6733
rtibia 15.2041
rfoot -8.0075 -12.5482
rtoes 2.61873
lfemur 13.229 -4.35108 -26.5331
ltibia 17.3275
lfoot -15.8941 -6.93608
ltoes -2.90887
51
root 0.863152 17.737 -19.5425 -1.36457 1.17054 2.42589
lowerback 11.4483 -1.21871 -5.37587
upperback 0.291745 -2.24096 1.37556
thorax -5.86076 -0.932188 4.8517
lowerneck -15.7528 -2.36903 -2.30773
upperneck 19.8859 -2.74028 0.161098
head 8.86011 -1.44702 0.103358
rclavicle -6.06293e-015 -3.97569e-016
rhumerus -39.4455 -34.2214 -66.3011
rradius 19.4477
rwrist 11.0606
rhand -20.9526 20.9799
rfingers 7.12502
rthumb 5.42007 -8.93076
lclavicle -6.06293e-015 -3.97569e-016
lhumerus -24.0759 -6.61607 80.1319
lradius 33.5813
lwrist 10.5229
lhand -28.989 23.6998
lfingers 7.12502
lthumb -2.34105 53.6667
rfemur -28.1513 4.90807 17.1841
rtibia 16.5188
rfoot -7.26941 -11.2547
rtoes 3.19441
lfemur 13.5182 -4.3939 -26.5791
ltibia 18.0664
lfoot -15.5411 -7.1092
ltoes -4.46679
52
root 0.848466 17.7344 -19.3462 -1.56325 1.26185 2.32724
lowerback 11.4065 -1.10959 -5.01738
upperback 0.604462 -2.05084 1.19144
thorax -5.54729 -0.868212 4.4136
lowerneck -16.4663 -2.56407 -1.76762
upperneck 19.9663 -3.07958 -0.0735215
head 9.00809 -1.58797 -0.117397
rclavicle 1.90833e-014 -1.43125e-014
rhumerus -39.6303 -35.2171 -66.0907
rradius 19.3762
rwrist 11.3704
rhand -20.7913 21.1886
rfingers 7.12502
rthumb 5.57587 -8.71809
lclavicle 1.90833e-014 -1.43125e-014
lhumerus -23.4029 -7.26684 79.9716
lradius 33.3982
lwrist 10.7529
lhand -29.0783 23.9309
lfingers 7.12502
lthumb -2.42733 53.8968
rfemur -27.9925 4.24719 17.7217
rtibia 17.8246
rfoot -6.85456 -10.3388
rtoes 2.85191
lfemur 13.9154 -4.6921 -26.5135
ltibia 18.9811
lfoot -15.156 -7.3436
ltoes -5.16473
53
root 0.832531 17.7293 -19.1518 -1.65604 1.06214 2.25278
lowerback 11.4873 -1.75365 -5.83827
upperback -0.247533 -2.98501 2.07702
thorax -6.30682 -1.24337 5.99848
lowerneck -13.0886 -1.85563 -3.3333
upperneck 19.132 -1.80261 -0.205062
head 8.11996 -1.12106 0.290133
rclavicle -1.56294e-014 -1.27222e-014
rhumerus -40.1074 -31.5414 -65.6297
rradius 19.0766
rwrist 10.7346
rhand -20.1406 21.4157
rfingers 7.12502
rthumb 6.20412 -8.47348
lclavicle -1.56294e-014 -1.27222e-014
lhumerus -25.9982 -4.04552 80.3137
lradius 33.4575
lwrist 10.0879
lhand -29.0231 23.8506
lfingers 7.12502
lthumb -2.37401 53.8171
rfemur -28.017 4.08348 18.1309
rtibia 19.1727
rfoot -6.50047 -9.58669
rtoes 3.33652
lfemur 14.2137 -4.69167 -26.4657
ltibia 19.8396
lfoot -14.5054 -7.68398
ltoes -5.89117
54
root 0.807802 17.7202 -18.9574 -1.26733 -0.315253 2.20408
lowerback 10.8593 -0.555322 -4.97247
upperback 0.748972 -1.27813 1.19523
thorax -5.17461 -0.504021 4.25605
lowerneck -17.6259 -2.63192 -1.74737
upperneck 20.4032 -3.16765 -0.0260569
head 9.37275 -1.61796 -0.135831
rclavicle 2.70347e-014 -5.1684e-015
rhumerus -39.4885 -36.0809 -65.7578
rradius 18.8368
rwrist 11.326
rhand -19.0454 21.4329
rfingers 7.12502
rthumb 7.26129 -8.4225
lclavicle 2.70347e-014 -5.1684e-015
lhumerus -22.8885 -6.87135 79.8414
lradius 32.9102
lwrist 10.5627
lhand -29.332 22.4999
lfingers 7.12502
lthumb -2.6723 52.4629
rfemur -28.6914 4.62011 18.6357
rtibia 20.2958
rfoot -5.49326 -8.22453
rtoes 2.86251
lfemur 13.8222 -3.74356 -26.4655
ltibia 20.9804
lfoot -13.9102 -7.68979
ltoes -7.69398
55
root 0.77666 17.7618 -18.7191 -2.01268 2.17379 1.92249
lowerback 11.4605 -1.56923 -4.77629
upperback 0.441821 -2.62117 1.44819
thorax -5.68435 -1.14408 4.6425
lowerneck -16.0319 -2.42859 -1.91865
upperneck 20.3019 -2.80908 -0.317152
head 9.04119 -1.50206 -0.138648
rclavicle 1.27222e-014 -2.78299e-015
rhumerus -40.364 -34.6832 -65.3987
rradius 18.8534
rwrist 11.0584
rhand -18.3913 21.2428
rfingers 7.12502
rthumb 7.89266 -8.58988
lclavicle 1.27222e-014 -2.78299e-015
lhumerus -24.3749 -5.98246 79.976
lradius 32.9214
lwrist 10.4481
lhand -30.2811 22.2392
lfingers 7.12502
lthumb -3.58896 52.1887
rfemur -27.3204 4.15964 18.5477
rtibia 21.3201
rfoot -5.11108 -9.63168
rtoes 1.90389
lfemur 14.5504 -5.49639 -25.8296
ltibia 22.3169
lfoot -13.2211 -9.19998
ltoes -8.22011
56
root 0.757036 17.7765 -18.5223 -2.02948 1.89654 1.5793
lowerback 11.5238 -1.6051 -4.47595
upperback 0.23519 -2.62499 1.62749
thorax -5.94328 -1.13897 4.67295
lowerneck -15.7178 -2.35248 -1.97508
upperneck 20.4363 -2.63279 -0.599146
head 9.02576 -1.45634 -0.200599
rclavicle 2.39536e-014 -9.14409e-015
rhumerus -40.7476 -34.6421 -64.8549
rradius 18.5713
rwrist 11.7385
rhand -18.5508 21.4054
rfingers 7.12502
rthumb 7.7387 -8.433
lclavicle 2.39536e-014 -9.14409e-015
lhumerus -24.7837 -5.24418 80.0372
lradius 32.5538
lwrist 10.4034
lhand -31.5607 23.2036
lfingers 7.12502
lthumb -4.82457 53.1286
rfemur -27.4476 4.41115 19.0129
rtibia 22.2883
rfoot -3.96347 -9.14792
rtoes 0.354395
lfemur 14.2535 -5.46192 -25.4606
ltibia 23.9015
lfoot -12.1378 -9.66905
ltoes -9.91494
57
root 0.736829 17.7907 -18.3208 -1.97409 1.85347 1.31275
lowerback 11.4337 -1.58463 -4.11653
upperback 0.201176 -2.54435 1.67116
thorax -5.9508 -1.10818 4.49979
lowerneck -16.031 -2.36973 -1.94359
upperneck 20.693 -2.64032 -0.669387
head 9.17062 -1.46562 -0.237154
rclavicle -1.49089e-014 6.75868e-015
rhumerus -40.7258 -34.3427 -65.1076
rradius 18.7639
rwrist 11.2496
rhand -18.7873 20.0601
rfingers 7.12502
rthumb 7.51043 -9.7866
lclavicle -1.49089e-014 6.75868e-015
lhumerus -24.6281 -4.9139 80.0687
lradius 31.9881
lwrist 10.3723
lhand -31.9409 22.8519
lfingers 7.12502
lthumb -5.19164 52.7683
rfemur -27.5597 4.63301 19.3251
rtibia 23.2218
rfoot -3.49285 -8.85786
rtoes -0.234362
lfemur 13.7323 -5.52303 -25.0989
ltibia 25.609
lfoot -10.6498 -10.5009
ltoes -10.6815
58
root 0.71914 17.796 -18.1145 -2.06109 1.64431 0.929957
lowerback 11.4624 -1.55721 -3.75376
upperback 0.13638 -2.45305 1.80943
thorax -6.05395 -1.06757 4.43008
lowerneck -16.2359 -2.30669 -1.9626
upperneck 20.9968 -2.53719 -0.691321
head 9.3134 -1.42246 -0.233921
rclavicle -2.48481e-016 -1.11319e-014
rhumerus -40.736 -33.6521 -65.4222
rradius 19.0487
rwrist 10.5861
rhand -18.7978 18.8791
rfingers 7.12502
rthumb 7.50035 -10.968
lclavicle -2.48481e-016 -1.11319e-014
lhumerus -25.0546 -4.18686 80.054
lradius 31.8021
lwrist 10.4691
lhand -31.2844 21.6897
lfingers 7.12502
lthumb -4.55778 51.6207
rfemur -27.285 5.01668 19.7821
rtibia 23.8733
rfoot -3.20894 -8.11246
rtoes -0.225679
lfemur 13.22 -5.36412 -24.6033
ltibia 27.6378
lfoot -9.21229 -11.3444
ltoes -12.5283
59
root 0.700202 17.8038 -17.9085 -2.32212 1.4835 0.384949
lowerback 11.585 -1.58234 -3.25029
upperback 0.18246 -2.41079 1.9964
thorax -6.0903 -1.05861 4.3405
lowerneck -16.3797 -2.22608 -1.86163
upperneck 21.1491 -2.40633 -0.866742
head 9.38858 -1.3738 -0.297501
rclavicle 5.27525e-014 -3.22031e-014
rhumerus -41.0032 -34.4673 -64.5836
rradius 18.5921
rwrist 11.6492
rhand -18.6918 19.8886
rfingers 7.12502
rthumb 7.6026 -9.95473
lclavicle 5.27525e-014 -3.22031e-014
lhumerus -25.5346 -2.88335 79.8735
lradius 31.7259
lwrist 10.3646
lhand -30.2431 19.8707
lfingers 7.12502
lthumb -3.55227 49.8209
rfemur -26.732 4.989 20.5593
rtibia 24.4858
rfoot -2.45195 -7.06877
rtoes 0.586622
lfemur 12.7077 -4.9446 -23.8295
ltibia 29.7977
lfoot -7.73487 -12.7775
ltoes -16.2011
